:SAMPLES-PER-SECOND 30
:FULLY-SPECIFIED
:DEGREES
165
root  22.5188 39.2551 31.8952 -152.539 81.8642 -149.061
RightUpLeg  14.6125 -9.31974 0.547025
RightLeg  11.0125 -7.52062 4.96383
RightFoot  -15.9435 -0.0162832 2.30881
RightToes  -5.8209e-011 0 -3.6325e-017
Spine  4.96745 2.00154 14.3659
Spine1  7.95041 4.4038 -7.51279
HEad  41.7345 -23.1682 -119.644
LeftShoulder1  7.39361 -10.6882 -45.4004
LeftArm  -8.97567 29.4587 -30.5416
LeftForeArm  27.657 -11.3641 -5.23484
LeftHand  -0.244104 0.0205437 5.32207
RightShoulder  5.80157 9.05805 40.0435
RightArm  7.01829 0.368708 31.826
RightForeArm  4.09681 35.4304 7.75412
RightHand  -0.381763 -1.79095 -12.1542
LeftUpLeg  -15.5957 4.70396 1.93627
LeftLeg  -6.68156 32.7005 -11.0852
LeftFoot  -0.152719 0.532281 -5.39771
LeftToes  1.76439e-010 -1.07097e-011 2.32476e-011
166
root  24.1585 38.9055 31.6805 -152.879 80.9538 -149.413
RightUpLeg  16.9095 -11.8705 -0.486618
RightLeg  12.7311 -4.97797 4.92628
RightFoot  -16.8249 0.0488659 3.36797
RightToes  -5.8209e-011 0 -3.6325e-017
Spine  3.64003 2.18773 14.0919
Spine1  8.67123 4.52698 -7.4962
HEad  41.4676 -19.5086 -126.08
LeftShoulder1  7.26205 -10.5331 -45.072
LeftArm  -9.66329 29.8499 -30.4673
LeftForeArm  27.7716 -10.7415 -5.1207
LeftHand  -0.244104 0.0205437 5.32207
RightShoulder  5.84872 9.04849 40.4318
RightArm  6.7498 -0.580014 31.8072
RightForeArm  4.09455 33.9425 7.34006
RightHand  -0.410589 -1.48632 -12.0976
LeftUpLeg  -15.2631 4.96373 1.13558
LeftLeg  -7.12295 37.3984 -12.4822
LeftFoot  0.0990805 0.381823 -3.91793
LeftToes  1.76439e-010 -1.07097e-011 2.32476e-011
167
root  25.8334 38.6532 31.4441 -156.863 80.8636 -153.252
RightUpLeg  19.5033 -18.511 -4.69451
RightLeg  15.7701 3.1599 4.79284
RightFoot  -16.9005 0.195377 6.28954
RightToes  -5.8209e-011 0 -3.6325e-017
Spine  2.61455 2.66402 12.4927
Spine1  9.48792 5.01078 -7.37498
HEad  41.8052 -18.8584 -125.083
LeftShoulder1  7.12438 -10.3198 -44.8911
LeftArm  -9.85329 30.1093 -29.8969
LeftForeArm  27.394 -10.66 -5.03645
LeftHand  -0.244104 0.0205437 5.32207
RightShoulder  5.98292 9.13404 41.1335
RightArm  6.98512 -2.08513 31.7051
RightForeArm  3.2425 30.9296 6.5727
RightHand  -0.476867 -0.916167 -12.3187
LeftUpLeg  -15.1594 5.73549 -0.456382
LeftLeg  -3.37343 38.5509 -11.1927
LeftFoot  1.07934 -0.476643 4.36584
LeftToes  1.76439e-010 -1.07097e-011 2.32476e-011
168
root  27.4888 38.4604 31.1768 -165.786 80.8348 -161.768
RightUpLeg  20.4073 -24.8143 -10.2183
RightLeg  22.7548 12.1758 4.96382
RightFoot  -14.7553 0.223877 11.5986
RightToes  -5.8209e-011 0 -3.6325e-017
Spine  2.33112 3.02505 9.65935
Spine1  9.53631 5.19807 -6.85239
HEad  42.0251 -19.4279 -121.014
LeftShoulder1  7.02963 -10.1007 -45.0098
LeftArm  -9.84438 29.9794 -28.8254
LeftForeArm  26.681 -10.7443 -4.97763
LeftHand  -0.244104 0.0205437 5.32207
RightShoulder  6.19967 9.31584 42.088
RightArm  8.08262 -3.46516 31.8956
RightForeArm  1.55881 25.625 5.54866
RightHand  -0.597414 0.0203137 -12.8669
LeftUpLeg  -16.6556 9.12165 -3.88583
LeftLeg  5.78915 34.5967 -5.147
LeftFoot  0.537425 -1.49948 14.3587
LeftToes  1.76439e-010 -1.07097e-011 2.32476e-011
169
root  28.9997 38.3895 30.9127 -178.532 79.7784 -174.227
RightUpLeg  15.9194 -19.927 -11.099
RightLeg  33.6409 9.1983 6.24673
RightFoot  -6.75257 -0.704774 16.2065
RightToes  -5.8209e-011 0 -3.6325e-017
Spine  2.92365 2.91626 6.16529
Spine1  8.64573 4.87695 -6.2872
HEad  39.7602 -7.73706 -144.454
LeftShoulder1  7.08624 -10.1297 -45.2857
LeftArm  -10.0905 28.9238 -27.59
LeftForeArm  26.0002 -10.4402 -4.88545
LeftHand  -0.244104 0.0205437 5.32207
RightShoulder  6.3853 9.50574 42.7591
RightArm  5.7765 -4.40439 32.8299
RightForeArm  3.87607 17.8609 5.66003
RightHand  -0.636379 0.456539 -12.7076
LeftUpLeg  -17.748 16.4199 -9.4771
LeftLeg  12.5808 25.1539 0.725905
LeftFoot  -0.944042 -1.77124 19.2862
LeftToes  1.76439e-010 -1.07097e-011 2.32476e-011
170
root  30.2712 38.3507 30.6807 170.458 78.0228 174.823
RightUpLeg  8.21255 -14.8783 -11.4041
RightLeg  46.5111 6.29592 6.77163
RightFoot  6.33909 -2.54638 16.7742
RightToes  -5.8209e-011 0 -3.6325e-017
Spine  4.24769 2.67161 3.06564
Spine1  7.73987 4.56662 -6.5829
HEad  32.4885 35.6443 121.765
LeftShoulder1  7.28636 -10.4737 -45.4282
LeftArm  -10.5827 26.719 -26.6558
LeftForeArm  25.4521 -10.0844 -4.76224
LeftHand  -0.244104 0.0205437 5.32207
RightShoulder  6.50282 9.72432 42.8311
RightArm  -3.98357 -5.03181 34.2342
RightForeArm  14.5877 9.24168 7.08727
RightHand  -0.469953 -0.449307 -10.9632
LeftUpLeg  -17.5917 20.4427 -13.3635
LeftLeg  16.1395 19.4298 3.44245
LeftFoot  -3.29644 -1.27831 18.1783
LeftToes  1.76439e-010 -1.07097e-011 2.32476e-011
171
root  31.3596 38.2546 30.4622 163.426 76.2646 167.959
RightUpLeg  -0.0142782 -9.98187 -11.5609
RightLeg  57.7159 4.08459 6.48508
RightFoot  15.7139 -3.2923 14.0728
RightToes  -5.8209e-011 0 -3.6325e-017
Spine  5.91303 2.50273 0.98353
Spine1  7.62001 4.38843 -7.768
HEad  37.0232 30.7343 136.587
LeftShoulder1  7.44043 -10.7983 -45.3349
LeftArm  -11.0301 23.7312 -26.3021
LeftForeArm  24.9297 -10.7725 -4.64649
LeftHand  -0.244104 0.0205437 5.32207
RightShoulder  6.61371 10.0072 42.6374
RightArm  -7.45168 -5.7015 35.7429
RightForeArm  20.3451 3.90786 6.02837
RightHand  -0.258444 -1.9591 -8.55266
LeftUpLeg  -16.0999 20.7928 -14.5497
LeftLeg  18.6216 18.0964 3.62961
LeftFoot  -6.11748 -0.689006 15.8879
LeftToes  1.76439e-010 -1.07097e-011 2.32476e-011
